#!OML:ASF F:\VICON\USERDATA\INSTALL\rory3\rory3.ASF
:FULLY-SPECIFIED
:DEGREES
751
root -2.57065 29.7045 -10.2671 -178.506 -169.585 180.151
lowerback 7.06395 1.30355 -1.43297
upperback 0.78393 1.5772 -1.27323
thorax -3.15267 0.793548 -0.661492
lowerneck -7.99984 1.04091 -5.78582
upperneck 32.7724 1.0023 5.25723
head 11.9738 0.351951 3.1244
rclavicle 2.31584e-014 -7.95139e-016
rhumerus -31.5508 4.86007 -83.8027
rradius 36.8622
rwrist 12.6189
rhand -23.2957 0.25101
rfingers 7.12502
rthumb 3.15755 -29.7054
lclavicle 2.31584e-014 -7.95139e-016
lhumerus -44.0902 44.4867 52.0434
lradius 12.1683
lwrist -24.6209
lhand -21.7976 25.3669
lfingers 7.12502
lthumb 4.60425 55.2969
rfemur -9.21076 10.736 25.244
rtibia 29.9893
rfoot -23.6771 -21.9721
rtoes 9.3253
lfemur -18.7054 12.3478 -23.5978
ltibia 37.876
lfoot -20.6414 17.9182
ltoes 1.22165
752
root -2.57194 29.6966 -10.2508 -178.49 -170.042 180.075
lowerback 7.01577 1.32204 -1.42702
upperback 0.744662 1.60501 -1.21389
thorax -3.16786 0.807875 -0.605744
lowerneck -7.89414 0.89122 -6.21869
upperneck 32.796 0.799969 5.49199
head 11.9711 0.237581 3.26654
rclavicle -3.16565e-014 -7.15625e-015
rhumerus -31.7598 4.70406 -83.7987
rradius 37.0033
rwrist 12.6209
rhand -23.0315 0.212814
rfingers 7.12502
rthumb 3.41266 -29.7396
lclavicle -3.16565e-014 -7.15625e-015
lhumerus -44.1137 44.2894 52.2566
lradius 12.2351
lwrist -24.1957
lhand -21.8876 24.9297
lfingers 7.12502
lthumb 4.51726 54.8615
rfemur -9.17453 10.6931 25.4006
rtibia 30.1142
rfoot -24.105 -22.2225
rtoes 10.1671
lfemur -18.4696 11.8442 -23.5041
ltibia 37.4813
lfoot -20.9825 17.9376
ltoes 2.88338
753
root -2.56936 29.6908 -10.2336 -178.514 -170.439 180.08
lowerback 6.93321 1.33283 -1.48161
upperback 0.739859 1.61897 -1.16356
thorax -3.12965 0.815808 -0.522522
lowerneck -7.78753 0.774741 -6.65296
upperneck 32.8052 0.656774 5.68873
head 11.9599 0.144853 3.40107
rclavicle 9.93923e-016 -9.93923e-015
rhumerus -31.9358 4.61077 -83.7761
rradius 37.1134
rwrist 12.962
rhand -22.6929 0.752557
rfingers 7.12502
rthumb 3.73971 -29.1944
lclavicle 9.93923e-016 -9.93923e-015
lhumerus -43.9536 43.8491 52.8918
lradius 12.3661
lwrist -23.0593
lhand -22.5369 24.0929
lfingers 7.12502
lthumb 3.89033 54.0372
rfemur -9.13613 10.5549 25.4396
rtibia 30.2825
rfoot -24.8519 -22.2216
rtoes 11.5583
lfemur -18.2108 11.3478 -23.5171
ltibia 37.1245
lfoot -21.1207 17.9614
ltoes 3.56828
754
root -2.56389 29.6848 -10.2167 -178.54 -170.793 180.153
lowerback 6.83401 1.35373 -1.55853
upperback 0.803101 1.64322 -1.20394
thorax -3.00992 0.828118 -0.519641
lowerneck -7.87723 0.770891 -6.34372
upperneck 32.8264 0.654242 5.50881
head 11.9909 0.161906 3.27987
rclavicle 3.47873e-016 9.93923e-015
rhumerus -31.9825 4.63573 -83.9163
rradius 37.1635
rwrist 12.7755
rhand -22.8929 1.29719
rfingers 7.12502
rthumb 3.54648 -28.6531
lclavicle 3.47873e-016 9.93923e-015
lhumerus -43.4442 43.2262 53.7801
lradius 12.5789
lwrist -21.7107
lhand -22.9878 23.4676
lfingers 7.12502
lthumb 3.45484 53.4194
rfemur -9.13436 10.354 25.369
rtibia 30.4879
rfoot -25.535 -22.1867
rtoes 12.5015
lfemur -17.9482 10.8658 -23.6279
ltibia 36.7612
lfoot -21.3491 17.9099
ltoes 4.1558
755
root -2.55932 29.6775 -10.2017 -178.519 -171.178 180.223
lowerback 6.76475 1.39079 -1.65611
upperback 0.825512 1.6861 -1.24822
thorax -2.94972 0.850134 -0.512367
lowerneck -7.96016 0.77693 -5.93349
upperneck 32.7879 0.671688 5.24796
head 11.9962 0.191717 3.1101
rclavicle 4.68138e-014 -3.37934e-014
rhumerus -32.0274 4.67208 -84.1006
rradius 37.1724
rwrist 12.0936
rhand -23.2071 1.35972
rfingers 7.12502
rthumb 3.24306 -28.5954
lclavicle 4.68138e-014 -3.37934e-014
lhumerus -42.9364 42.6556 54.5793
lradius 12.7938
lwrist -20.6641
lhand -22.9695 23.5795
lfingers 7.12502
lthumb 3.47257 53.531
rfemur -9.20105 10.1503 25.2947
rtibia 30.6969
rfoot -25.9422 -22.266
rtoes 12.9065
lfemur -17.7042 10.3841 -23.745
ltibia 36.4034
lfoot -21.8269 17.6855
ltoes 5.94784
756
root -2.55451 29.6711 -10.1867 -178.57 -171.59 180.345
lowerback 6.79345 1.41763 -1.82021
upperback 0.832443 1.70749 -1.29444
thorax -2.96211 0.862396 -0.47078
lowerneck -8.14802 0.46151 -6.66899
upperneck 33.0539 0.192577 5.83512
head 12.1736 -0.0435259 3.42197
rclavicle 8.79622e-015 1.19271e-015
rhumerus -32.1449 4.65864 -84.2461
rradius 37.2695
rwrist 11.7695
rhand -23.2118 0.892485
rfingers 7.12502
rthumb 3.23855 -29.0627
lclavicle 8.79622e-015 1.19271e-015
lhumerus -42.3824 41.7051 55.6528
lradius 13.1738
lwrist -19.2438
lhand -22.6709 24.4755
lfingers 7.12502
lthumb 3.76091 54.422
rfemur -9.19102 9.90887 25.1702
rtibia 30.8916
rfoot -26.3491 -22.3071
rtoes 13.3452
lfemur -17.3655 9.79647 -23.9126
ltibia 36.0585
lfoot -22.1004 17.5739
ltoes 6.5869
757
root -2.55096 29.6632 -10.1697 -178.636 -171.972 180.306
lowerback 6.82553 1.44219 -1.86315
upperback 0.855016 1.73814 -1.24501
thorax -2.95971 0.878285 -0.39914
lowerneck -8.17845 0.202161 -7.18008
upperneck 33.1594 -0.141592 6.05184
head 12.2511 -0.229927 3.56164
rclavicle -2.79292e-014 1.07344e-014
rhumerus -32.2974 4.82823 -84.3645
rradius 37.3771
rwrist 11.0973
rhand -22.9278 0.0406881
rfingers 7.12502
rthumb 3.51286 -29.9101
lclavicle -2.79292e-014 1.07344e-014
lhumerus -41.9471 40.8362 56.7251
lradius 13.6247
lwrist -17.8929
lhand -22.4133 25.3248
lfingers 7.12502
lthumb 4.00966 55.2668
rfemur -9.12079 9.62758 25.23
rtibia 31.0646
rfoot -26.7212 -22.3702
rtoes 13.4485
lfemur -17.0536 9.21161 -23.8845
ltibia 35.7786
lfoot -22.2113 17.5221
ltoes 6.99483
758
root -2.54943 29.6522 -10.1541 -178.721 -172.248 180.189
lowerback 6.88555 1.48969 -1.90223
upperback 0.884998 1.80021 -1.1534
thorax -2.9669 0.90993 -0.289841
lowerneck -8.00158 0.334902 -6.46194
upperneck 32.9028 0.105514 5.40109
head 12.0933 -0.104828 3.20138
rclavicle 9.98893e-015 5.96354e-015
rhumerus -32.4694 5.29457 -84.5725
rradius 37.4558
rwrist 9.83589
rhand -22.8157 -0.325914
rfingers 7.12502
rthumb 3.62109 -30.2749
lclavicle 9.98893e-015 5.96354e-015
lhumerus -41.6071 40.2531 57.5685
lradius 13.9682
lwrist -16.9649
lhand -22.4356 25.64
lfingers 7.12502
lthumb 3.98811 55.5825
rfemur -9.00973 9.46311 25.3891
rtibia 31.2106
rfoot -26.5929 -22.5907
rtoes 12.3454
lfemur -16.783 8.74694 -23.7607
ltibia 35.5901
lfoot -22.4247 17.5236
ltoes 7.38983
759
root -2.54933 29.6391 -10.1425 -178.776 -172.443 180.03
lowerback 7.00054 1.5876 -1.91278
upperback 0.856615 1.92751 -1.10016
thorax -3.06392 0.974119 -0.245179
lowerneck -7.23072 0.304054 -6.47099
upperneck 33.0778 0.205931 4.79606
head 12.0053 -0.141355 2.97981
rclavicle -3.03147e-015 -1.15295e-014
rhumerus -32.6081 5.41705 -84.7164
rradius 37.5049
rwrist 9.61352
rhand -22.5619 -0.740814
rfingers 7.12502
rthumb 3.86619 -30.6855
lclavicle -3.03147e-015 -1.15295e-014
lhumerus -41.1156 39.1597 58.672
lradius 14.3822
lwrist -15.5281
lhand -22.6591 25.5799
lfingers 7.12502
lthumb 3.77227 55.5263
rfemur -8.93647 9.40019 25.587
rtibia 31.3293
rfoot -25.9265 -22.9906
rtoes 9.91454
lfemur -16.5925 8.42289 -23.5955
ltibia 35.5126
lfoot -22.6135 17.5438
ltoes 7.50714
760
root -2.547 29.6301 -10.1333 -178.721 -172.702 179.824
lowerback 7.03789 1.63286 -1.84848
upperback 0.787021 1.9929 -1.02879
thorax -3.1578 1.00699 -0.216511
lowerneck -7.81044 0.288057 -6.36105
upperneck 32.9942 0.0261453 5.35708
head 12.0975 -0.13292 3.15868
rclavicle -1.17283e-014 -1.11319e-014
rhumerus -32.706 5.29937 -84.6581
rradius 37.7723
rwrist 11.1658
rhand -21.2284 -2.18763
rfingers 7.12502
rthumb 5.15377 -32.105
lclavicle -1.17283e-014 -1.11319e-014
lhumerus -40.806 38.0788 59.6682
lradius 14.9113
lwrist -14.0179
lhand -22.619 25.3955
lfingers 7.12502
lthumb 3.81103 55.3412
rfemur -8.98892 9.31422 25.8062
rtibia 31.4374
rfoot -25.6442 -23.2314
rtoes 8.80574
lfemur -16.5967 8.13285 -23.4036
ltibia 35.5346
lfoot -22.6075 17.5451
ltoes 7.20575
